<mxfile host="Electron" agent="Mozilla/5.0 (Windows NT 10.0; Win64; x64) AppleWebKit/537.36 (KHTML, like Gecko) draw.io/24.7.5 Chrome/126.0.6478.183 Electron/31.3.0 Safari/537.36" version="24.7.5">
  <diagram name="Page-1" id="lk_lxpIOaLFzsy-hK6X3">
    <mxGraphModel dx="4253" dy="3220" grid="0" gridSize="10" guides="1" tooltips="1" connect="1" arrows="1" fold="1" page="0" pageScale="1" pageWidth="850" pageHeight="1100" background="#D5E8D4" math="0" shadow="1">
      <root>
        <object label="" q4.c="_create_DFD_diagram_of_flipkart&#xa;" id="0">
          <mxCell />
        </object>
        <mxCell id="1" parent="0" />
        <mxCell id="vmyl-uYQFiKy0vHakfDY-1" value="&lt;h2&gt;CUSTOMER&lt;/h2&gt;" style="rounded=1;whiteSpace=wrap;html=1;labelBackgroundColor=none;fillColor=#A8DADC;strokeColor=#457B9D;fontColor=#1D3557;" vertex="1" parent="1">
          <mxGeometry x="-700" y="-1040" width="140" height="70" as="geometry" />
        </mxCell>
        <mxCell id="vmyl-uYQFiKy0vHakfDY-2" value="&lt;h1 style=&quot;line-height: 660%;&quot;&gt;FLIPKART&lt;/h1&gt;" style="whiteSpace=wrap;html=1;aspect=fixed;labelBackgroundColor=none;fillColor=#A8DADC;strokeColor=#457B9D;fontColor=#1D3557;" vertex="1" parent="1">
          <mxGeometry x="-80" y="-1082.5" width="170.5" height="170.5" as="geometry" />
        </mxCell>
        <mxCell id="vmyl-uYQFiKy0vHakfDY-67" style="edgeStyle=orthogonalEdgeStyle;rounded=0;orthogonalLoop=1;jettySize=auto;html=1;entryX=0;entryY=0.5;entryDx=0;entryDy=0;strokeColor=#457B9D;fontColor=#1D3557;fillColor=#A8DADC;" edge="1" parent="1" source="vmyl-uYQFiKy0vHakfDY-4" target="vmyl-uYQFiKy0vHakfDY-66">
          <mxGeometry relative="1" as="geometry" />
        </mxCell>
        <mxCell id="vmyl-uYQFiKy0vHakfDY-4" value="&lt;h2&gt;SELECT ITEMS&lt;/h2&gt;" style="rounded=1;whiteSpace=wrap;html=1;labelBackgroundColor=none;fillColor=#A8DADC;strokeColor=#457B9D;fontColor=#1D3557;" vertex="1" parent="1">
          <mxGeometry x="-97.5" y="-820" width="190" height="60" as="geometry" />
        </mxCell>
        <mxCell id="vmyl-uYQFiKy0vHakfDY-7" value="" style="endArrow=classic;html=1;rounded=0;exitX=0.471;exitY=0.998;exitDx=0;exitDy=0;exitPerimeter=0;labelBackgroundColor=none;strokeColor=#457B9D;fontColor=default;" edge="1" parent="1" source="vmyl-uYQFiKy0vHakfDY-2">
          <mxGeometry width="50" height="50" relative="1" as="geometry">
            <mxPoint x="50" y="-780" as="sourcePoint" />
            <mxPoint y="-820" as="targetPoint" />
          </mxGeometry>
        </mxCell>
        <mxCell id="vmyl-uYQFiKy0vHakfDY-13" style="edgeStyle=orthogonalEdgeStyle;rounded=0;orthogonalLoop=1;jettySize=auto;html=1;labelBackgroundColor=none;strokeColor=#457B9D;fontColor=default;" edge="1" parent="1">
          <mxGeometry relative="1" as="geometry">
            <mxPoint x="-400.0000000000002" y="-750" as="targetPoint" />
            <mxPoint x="-366" y="-609.952380952381" as="sourcePoint" />
          </mxGeometry>
        </mxCell>
        <mxCell id="vmyl-uYQFiKy0vHakfDY-9" value="&lt;h2&gt;WISHLIST ITEMS&lt;/h2&gt;" style="rounded=1;whiteSpace=wrap;html=1;labelBackgroundColor=none;fillColor=#A8DADC;strokeColor=#457B9D;fontColor=#1D3557;" vertex="1" parent="1">
          <mxGeometry x="-90" y="-640" width="180" height="60" as="geometry" />
        </mxCell>
        <mxCell id="vmyl-uYQFiKy0vHakfDY-10" value="" style="endArrow=classic;html=1;rounded=0;exitX=0.5;exitY=1;exitDx=0;exitDy=0;labelBackgroundColor=none;strokeColor=#457B9D;fontColor=default;" edge="1" parent="1" source="vmyl-uYQFiKy0vHakfDY-69">
          <mxGeometry width="50" height="50" relative="1" as="geometry">
            <mxPoint x="-120" y="-700" as="sourcePoint" />
            <mxPoint x="-2" y="-630" as="targetPoint" />
          </mxGeometry>
        </mxCell>
        <mxCell id="vmyl-uYQFiKy0vHakfDY-15" style="edgeStyle=orthogonalEdgeStyle;rounded=0;orthogonalLoop=1;jettySize=auto;html=1;entryX=0;entryY=0.5;entryDx=0;entryDy=0;labelBackgroundColor=none;strokeColor=#457B9D;fontColor=default;" edge="1" parent="1" source="vmyl-uYQFiKy0vHakfDY-11" target="vmyl-uYQFiKy0vHakfDY-4">
          <mxGeometry relative="1" as="geometry" />
        </mxCell>
        <mxCell id="vmyl-uYQFiKy0vHakfDY-11" value="&lt;h2&gt;ITEMS IN CART&lt;/h2&gt;" style="rounded=1;whiteSpace=wrap;html=1;labelBackgroundColor=none;fillColor=#A8DADC;strokeColor=#457B9D;fontColor=#1D3557;" vertex="1" parent="1">
          <mxGeometry x="-480" y="-825" width="170" height="70" as="geometry" />
        </mxCell>
        <mxCell id="vmyl-uYQFiKy0vHakfDY-14" value="" style="endArrow=classic;html=1;rounded=0;entryX=0.842;entryY=1.071;entryDx=0;entryDy=0;entryPerimeter=0;exitX=0.25;exitY=1;exitDx=0;exitDy=0;labelBackgroundColor=none;strokeColor=#457B9D;fontColor=default;" edge="1" parent="1" source="vmyl-uYQFiKy0vHakfDY-4" target="vmyl-uYQFiKy0vHakfDY-11">
          <mxGeometry width="50" height="50" relative="1" as="geometry">
            <mxPoint x="-120" y="-700" as="sourcePoint" />
            <mxPoint x="-70" y="-750" as="targetPoint" />
            <Array as="points">
              <mxPoint x="-50" y="-680" />
              <mxPoint x="-337" y="-680" />
            </Array>
          </mxGeometry>
        </mxCell>
        <mxCell id="vmyl-uYQFiKy0vHakfDY-19" value="" style="edgeStyle=orthogonalEdgeStyle;rounded=0;orthogonalLoop=1;jettySize=auto;html=1;labelBackgroundColor=none;strokeColor=#457B9D;fontColor=default;" edge="1" parent="1" source="vmyl-uYQFiKy0vHakfDY-16" target="vmyl-uYQFiKy0vHakfDY-18">
          <mxGeometry relative="1" as="geometry" />
        </mxCell>
        <mxCell id="vmyl-uYQFiKy0vHakfDY-65" style="edgeStyle=orthogonalEdgeStyle;rounded=0;orthogonalLoop=1;jettySize=auto;html=1;entryX=0.5;entryY=0;entryDx=0;entryDy=0;labelBackgroundColor=none;strokeColor=#457B9D;fontColor=default;" edge="1" parent="1" source="vmyl-uYQFiKy0vHakfDY-16" target="vmyl-uYQFiKy0vHakfDY-18">
          <mxGeometry relative="1" as="geometry" />
        </mxCell>
        <mxCell id="vmyl-uYQFiKy0vHakfDY-16" value="&lt;h1&gt;CUSTOMER DATA&lt;/h1&gt;" style="ellipse;whiteSpace=wrap;html=1;aspect=fixed;labelBackgroundColor=none;fillColor=#A8DADC;strokeColor=#457B9D;fontColor=#1D3557;" vertex="1" parent="1">
          <mxGeometry x="532.5" y="-902.5" width="225" height="225" as="geometry" />
        </mxCell>
        <mxCell id="vmyl-uYQFiKy0vHakfDY-29" style="edgeStyle=orthogonalEdgeStyle;rounded=0;orthogonalLoop=1;jettySize=auto;html=1;entryX=1;entryY=0.5;entryDx=0;entryDy=0;labelBackgroundColor=none;strokeColor=#457B9D;fontColor=default;" edge="1" parent="1" source="vmyl-uYQFiKy0vHakfDY-18" target="vmyl-uYQFiKy0vHakfDY-28">
          <mxGeometry relative="1" as="geometry" />
        </mxCell>
        <mxCell id="vmyl-uYQFiKy0vHakfDY-18" value="&lt;h1&gt;&lt;i&gt;PHONE&lt;/i&gt;_&lt;i style=&quot;background-color: initial;&quot;&gt;NO&lt;/i&gt;&lt;/h1&gt;&lt;h1&gt;&lt;i style=&quot;background-color: initial;&quot;&gt;E-MAIL ADDRESS&lt;/i&gt;&lt;/h1&gt;&lt;h1&gt;&lt;i style=&quot;background-color: initial;&quot;&gt;ADDRESS OF DELIVERY PLACE&lt;/i&gt;&lt;/h1&gt;" style="whiteSpace=wrap;html=1;labelBackgroundColor=none;fillColor=#A8DADC;strokeColor=#457B9D;fontColor=#1D3557;" vertex="1" parent="1">
          <mxGeometry x="500" y="-520" width="290" height="230" as="geometry" />
        </mxCell>
        <mxCell id="vmyl-uYQFiKy0vHakfDY-34" style="edgeStyle=orthogonalEdgeStyle;rounded=0;orthogonalLoop=1;jettySize=auto;html=1;exitX=1;exitY=1;exitDx=0;exitDy=0;entryX=0.5;entryY=0;entryDx=0;entryDy=0;labelBackgroundColor=none;strokeColor=#457B9D;fontColor=default;" edge="1" parent="1" source="vmyl-uYQFiKy0vHakfDY-28" target="vmyl-uYQFiKy0vHakfDY-32">
          <mxGeometry relative="1" as="geometry" />
        </mxCell>
        <mxCell id="vmyl-uYQFiKy0vHakfDY-35" style="edgeStyle=orthogonalEdgeStyle;rounded=0;orthogonalLoop=1;jettySize=auto;html=1;exitX=0;exitY=1;exitDx=0;exitDy=0;entryX=0.5;entryY=0;entryDx=0;entryDy=0;labelBackgroundColor=none;strokeColor=#457B9D;fontColor=default;" edge="1" parent="1" source="vmyl-uYQFiKy0vHakfDY-28" target="vmyl-uYQFiKy0vHakfDY-30">
          <mxGeometry relative="1" as="geometry" />
        </mxCell>
        <mxCell id="vmyl-uYQFiKy0vHakfDY-28" value="&lt;h2&gt;PAYMENT MODE&lt;/h2&gt;" style="ellipse;whiteSpace=wrap;html=1;labelBackgroundColor=none;fillColor=#A8DADC;strokeColor=#457B9D;fontColor=#1D3557;" vertex="1" parent="1">
          <mxGeometry x="-102.5" y="-475" width="200" height="140" as="geometry" />
        </mxCell>
        <mxCell id="vmyl-uYQFiKy0vHakfDY-53" style="edgeStyle=orthogonalEdgeStyle;rounded=0;orthogonalLoop=1;jettySize=auto;html=1;entryX=0.5;entryY=0;entryDx=0;entryDy=0;labelBackgroundColor=none;strokeColor=#457B9D;fontColor=default;" edge="1" parent="1" source="vmyl-uYQFiKy0vHakfDY-74" target="vmyl-uYQFiKy0vHakfDY-45">
          <mxGeometry relative="1" as="geometry" />
        </mxCell>
        <mxCell id="vmyl-uYQFiKy0vHakfDY-54" style="edgeStyle=orthogonalEdgeStyle;rounded=0;orthogonalLoop=1;jettySize=auto;html=1;entryX=0.5;entryY=0;entryDx=0;entryDy=0;labelBackgroundColor=none;strokeColor=#457B9D;fontColor=default;exitX=0.5;exitY=1;exitDx=0;exitDy=0;" edge="1" parent="1" source="vmyl-uYQFiKy0vHakfDY-87" target="vmyl-uYQFiKy0vHakfDY-50">
          <mxGeometry relative="1" as="geometry">
            <mxPoint x="-450" y="-66" as="sourcePoint" />
          </mxGeometry>
        </mxCell>
        <mxCell id="vmyl-uYQFiKy0vHakfDY-88" style="edgeStyle=orthogonalEdgeStyle;rounded=0;orthogonalLoop=1;jettySize=auto;html=1;entryX=0.5;entryY=0;entryDx=0;entryDy=0;strokeColor=#457B9D;fontColor=#1D3557;fillColor=#A8DADC;" edge="1" parent="1" source="vmyl-uYQFiKy0vHakfDY-30" target="vmyl-uYQFiKy0vHakfDY-87">
          <mxGeometry relative="1" as="geometry" />
        </mxCell>
        <mxCell id="vmyl-uYQFiKy0vHakfDY-30" value="&lt;h2&gt;CREDIT / DEBIT CARD&lt;/h2&gt;" style="rounded=0;whiteSpace=wrap;html=1;labelBackgroundColor=none;fillColor=#A8DADC;strokeColor=#457B9D;fontColor=#1D3557;" vertex="1" parent="1">
          <mxGeometry x="-480" y="-200" width="240" height="60" as="geometry" />
        </mxCell>
        <mxCell id="vmyl-uYQFiKy0vHakfDY-39" style="edgeStyle=orthogonalEdgeStyle;rounded=0;orthogonalLoop=1;jettySize=auto;html=1;exitX=0;exitY=0.5;exitDx=0;exitDy=0;entryX=0;entryY=0.5;entryDx=0;entryDy=0;labelBackgroundColor=none;strokeColor=#457B9D;fontColor=default;" edge="1" parent="1" source="vmyl-uYQFiKy0vHakfDY-31" target="vmyl-uYQFiKy0vHakfDY-31">
          <mxGeometry relative="1" as="geometry">
            <mxPoint x="-105.27272727272725" y="-239.72727272727275" as="targetPoint" />
          </mxGeometry>
        </mxCell>
        <mxCell id="vmyl-uYQFiKy0vHakfDY-41" style="edgeStyle=orthogonalEdgeStyle;rounded=0;orthogonalLoop=1;jettySize=auto;html=1;entryX=0.466;entryY=0.001;entryDx=0;entryDy=0;entryPerimeter=0;labelBackgroundColor=none;strokeColor=#457B9D;fontColor=default;" edge="1" parent="1" source="vmyl-uYQFiKy0vHakfDY-31" target="vmyl-uYQFiKy0vHakfDY-43">
          <mxGeometry relative="1" as="geometry">
            <mxPoint y="70" as="targetPoint" />
            <Array as="points">
              <mxPoint x="-6" y="-20" />
              <mxPoint x="-6" y="-20" />
            </Array>
          </mxGeometry>
        </mxCell>
        <mxCell id="vmyl-uYQFiKy0vHakfDY-31" value="&lt;h2&gt;CASH ON DELIVERY&lt;/h2&gt;" style="whiteSpace=wrap;html=1;labelBackgroundColor=none;fillColor=#A8DADC;strokeColor=#457B9D;fontColor=#1D3557;" vertex="1" parent="1">
          <mxGeometry x="-120" y="-200" width="240" height="60" as="geometry" />
        </mxCell>
        <mxCell id="vmyl-uYQFiKy0vHakfDY-55" style="edgeStyle=orthogonalEdgeStyle;rounded=0;orthogonalLoop=1;jettySize=auto;html=1;entryX=0.5;entryY=0;entryDx=0;entryDy=0;labelBackgroundColor=none;strokeColor=#457B9D;fontColor=default;" edge="1" parent="1" source="vmyl-uYQFiKy0vHakfDY-86" target="vmyl-uYQFiKy0vHakfDY-48">
          <mxGeometry relative="1" as="geometry" />
        </mxCell>
        <mxCell id="vmyl-uYQFiKy0vHakfDY-56" style="edgeStyle=orthogonalEdgeStyle;rounded=0;orthogonalLoop=1;jettySize=auto;html=1;entryX=0.5;entryY=0;entryDx=0;entryDy=0;labelBackgroundColor=none;strokeColor=#457B9D;fontColor=default;" edge="1" parent="1" source="vmyl-uYQFiKy0vHakfDY-90" target="vmyl-uYQFiKy0vHakfDY-49">
          <mxGeometry relative="1" as="geometry" />
        </mxCell>
        <mxCell id="vmyl-uYQFiKy0vHakfDY-32" value="&lt;h2&gt;NET BANKING&lt;/h2&gt;" style="whiteSpace=wrap;html=1;labelBackgroundColor=none;fillColor=#A8DADC;strokeColor=#457B9D;fontColor=#1D3557;" vertex="1" parent="1">
          <mxGeometry x="240" y="-200" width="240" height="60" as="geometry" />
        </mxCell>
        <mxCell id="vmyl-uYQFiKy0vHakfDY-37" style="edgeStyle=orthogonalEdgeStyle;rounded=0;orthogonalLoop=1;jettySize=auto;html=1;entryX=0.491;entryY=0.027;entryDx=0;entryDy=0;entryPerimeter=0;labelBackgroundColor=none;strokeColor=#457B9D;fontColor=default;" edge="1" parent="1" source="vmyl-uYQFiKy0vHakfDY-28" target="vmyl-uYQFiKy0vHakfDY-31">
          <mxGeometry relative="1" as="geometry" />
        </mxCell>
        <mxCell id="vmyl-uYQFiKy0vHakfDY-63" style="edgeStyle=orthogonalEdgeStyle;rounded=0;orthogonalLoop=1;jettySize=auto;html=1;labelBackgroundColor=none;strokeColor=#457B9D;fontColor=default;" edge="1" parent="1" source="vmyl-uYQFiKy0vHakfDY-43">
          <mxGeometry relative="1" as="geometry">
            <mxPoint y="240" as="targetPoint" />
          </mxGeometry>
        </mxCell>
        <mxCell id="vmyl-uYQFiKy0vHakfDY-43" value="&lt;h2&gt;READY TO DELIVERY&lt;/h2&gt;" style="rounded=0;whiteSpace=wrap;html=1;labelBackgroundColor=none;fillColor=#A8DADC;strokeColor=#457B9D;fontColor=#1D3557;" vertex="1" parent="1">
          <mxGeometry x="-100" width="200" height="60" as="geometry" />
        </mxCell>
        <mxCell id="vmyl-uYQFiKy0vHakfDY-62" style="edgeStyle=orthogonalEdgeStyle;rounded=0;orthogonalLoop=1;jettySize=auto;html=1;labelBackgroundColor=none;strokeColor=#457B9D;fontColor=default;" edge="1" parent="1" source="vmyl-uYQFiKy0vHakfDY-45">
          <mxGeometry relative="1" as="geometry">
            <mxPoint x="-225" y="240" as="targetPoint" />
          </mxGeometry>
        </mxCell>
        <mxCell id="vmyl-uYQFiKy0vHakfDY-45" value="&lt;h2&gt;PAYMENT DONE&lt;/h2&gt;" style="rounded=0;whiteSpace=wrap;html=1;labelBackgroundColor=none;fillColor=#A8DADC;strokeColor=#457B9D;fontColor=#1D3557;" vertex="1" parent="1">
          <mxGeometry x="-320" width="190" height="60" as="geometry" />
        </mxCell>
        <mxCell id="vmyl-uYQFiKy0vHakfDY-47" style="edgeStyle=orthogonalEdgeStyle;rounded=0;orthogonalLoop=1;jettySize=auto;html=1;exitX=0.5;exitY=1;exitDx=0;exitDy=0;labelBackgroundColor=none;strokeColor=#457B9D;fontColor=default;" edge="1" parent="1" source="vmyl-uYQFiKy0vHakfDY-45" target="vmyl-uYQFiKy0vHakfDY-45">
          <mxGeometry relative="1" as="geometry" />
        </mxCell>
        <mxCell id="vmyl-uYQFiKy0vHakfDY-48" value="&lt;h2&gt;PAYMENT FAILED&lt;/h2&gt;" style="whiteSpace=wrap;html=1;labelBackgroundColor=none;fillColor=#A8DADC;strokeColor=#457B9D;fontColor=#1D3557;" vertex="1" parent="1">
          <mxGeometry x="130" width="190" height="60" as="geometry" />
        </mxCell>
        <mxCell id="vmyl-uYQFiKy0vHakfDY-49" value="&lt;h2&gt;PAYMENT DONE&lt;/h2&gt;" style="whiteSpace=wrap;html=1;labelBackgroundColor=none;fillColor=#A8DADC;strokeColor=#457B9D;fontColor=#1D3557;" vertex="1" parent="1">
          <mxGeometry x="397" width="190" height="60" as="geometry" />
        </mxCell>
        <mxCell id="vmyl-uYQFiKy0vHakfDY-50" value="&lt;h2&gt;PAYMENT FAILED&lt;/h2&gt;" style="whiteSpace=wrap;html=1;labelBackgroundColor=none;fillColor=#A8DADC;strokeColor=#457B9D;fontColor=#1D3557;" vertex="1" parent="1">
          <mxGeometry x="-590" width="190" height="60" as="geometry" />
        </mxCell>
        <mxCell id="vmyl-uYQFiKy0vHakfDY-51" style="edgeStyle=orthogonalEdgeStyle;rounded=0;orthogonalLoop=1;jettySize=auto;html=1;entryX=-0.002;entryY=0.453;entryDx=0;entryDy=0;entryPerimeter=0;labelBackgroundColor=none;strokeColor=#457B9D;fontColor=default;" edge="1" parent="1" source="vmyl-uYQFiKy0vHakfDY-77" target="vmyl-uYQFiKy0vHakfDY-2">
          <mxGeometry relative="1" as="geometry" />
        </mxCell>
        <mxCell id="vmyl-uYQFiKy0vHakfDY-64" style="edgeStyle=orthogonalEdgeStyle;rounded=0;orthogonalLoop=1;jettySize=auto;html=1;entryX=0.5;entryY=1;entryDx=0;entryDy=0;labelBackgroundColor=none;strokeColor=#457B9D;fontColor=default;" edge="1" parent="1" source="vmyl-uYQFiKy0vHakfDY-52" target="vmyl-uYQFiKy0vHakfDY-1">
          <mxGeometry relative="1" as="geometry" />
        </mxCell>
        <mxCell id="vmyl-uYQFiKy0vHakfDY-52" value="&lt;h1&gt;ORDER SHIPPED&lt;/h1&gt;" style="ellipse;whiteSpace=wrap;html=1;labelBackgroundColor=none;fillColor=#A8DADC;strokeColor=#457B9D;fontColor=#1D3557;" vertex="1" parent="1">
          <mxGeometry x="-740" y="140" width="220" height="190" as="geometry" />
        </mxCell>
        <mxCell id="vmyl-uYQFiKy0vHakfDY-61" value="" style="endArrow=classic;html=1;rounded=0;entryX=1;entryY=0.5;entryDx=0;entryDy=0;exitX=0.5;exitY=1;exitDx=0;exitDy=0;labelBackgroundColor=none;strokeColor=#457B9D;fontColor=default;" edge="1" parent="1" source="vmyl-uYQFiKy0vHakfDY-49" target="vmyl-uYQFiKy0vHakfDY-52">
          <mxGeometry width="50" height="50" relative="1" as="geometry">
            <mxPoint x="-100" y="120" as="sourcePoint" />
            <mxPoint x="-50" y="70" as="targetPoint" />
            <Array as="points">
              <mxPoint x="495" y="235" />
            </Array>
          </mxGeometry>
        </mxCell>
        <mxCell id="vmyl-uYQFiKy0vHakfDY-68" style="edgeStyle=orthogonalEdgeStyle;rounded=0;orthogonalLoop=1;jettySize=auto;html=1;entryX=0;entryY=0.5;entryDx=0;entryDy=0;strokeColor=#457B9D;fontColor=#1D3557;fillColor=#A8DADC;" edge="1" parent="1" source="vmyl-uYQFiKy0vHakfDY-66" target="vmyl-uYQFiKy0vHakfDY-16">
          <mxGeometry relative="1" as="geometry" />
        </mxCell>
        <mxCell id="vmyl-uYQFiKy0vHakfDY-66" value="&lt;h2&gt;BUY NOW&lt;/h2&gt;" style="rounded=1;whiteSpace=wrap;html=1;strokeColor=#457B9D;fontColor=#1D3557;fillColor=#A8DADC;" vertex="1" parent="1">
          <mxGeometry x="240" y="-820" width="120" height="60" as="geometry" />
        </mxCell>
        <mxCell id="vmyl-uYQFiKy0vHakfDY-70" value="CONFIRMATION AND DELIVERY DATE&lt;div style=&quot;font-size: 24px;&quot;&gt;&lt;br style=&quot;font-size: 24px;&quot;&gt;&lt;/div&gt;" style="text;html=1;align=center;verticalAlign=middle;whiteSpace=wrap;rounded=0;fontColor=#1D3557;rotation=270;labelBackgroundColor=none;textShadow=1;fontStyle=3;fontSize=24;" vertex="1" parent="1">
          <mxGeometry x="-1111" y="-473" width="920" height="116" as="geometry" />
        </mxCell>
        <mxCell id="vmyl-uYQFiKy0vHakfDY-75" value="" style="edgeStyle=orthogonalEdgeStyle;rounded=0;orthogonalLoop=1;jettySize=auto;html=1;entryX=0.5;entryY=0;entryDx=0;entryDy=0;labelBackgroundColor=none;strokeColor=#457B9D;fontColor=default;" edge="1" parent="1" source="vmyl-uYQFiKy0vHakfDY-30" target="vmyl-uYQFiKy0vHakfDY-74">
          <mxGeometry relative="1" as="geometry">
            <mxPoint x="-360" y="-140" as="sourcePoint" />
            <mxPoint x="-225" as="targetPoint" />
            <Array as="points">
              <mxPoint x="-360" y="-116" />
              <mxPoint x="-294" y="-116" />
            </Array>
          </mxGeometry>
        </mxCell>
        <mxCell id="vmyl-uYQFiKy0vHakfDY-74" value="&lt;h1 style=&quot;font-size: 20px;&quot;&gt;YES&lt;/h1&gt;" style="text;html=1;align=center;verticalAlign=middle;whiteSpace=wrap;rounded=0;fontColor=#1D3557;" vertex="1" parent="1">
          <mxGeometry x="-324" y="-92" width="60" height="30" as="geometry" />
        </mxCell>
        <mxCell id="vmyl-uYQFiKy0vHakfDY-76" value="" style="edgeStyle=orthogonalEdgeStyle;rounded=0;orthogonalLoop=1;jettySize=auto;html=1;entryX=-0.002;entryY=0.453;entryDx=0;entryDy=0;entryPerimeter=0;labelBackgroundColor=none;strokeColor=#457B9D;fontColor=default;" edge="1" parent="1" source="vmyl-uYQFiKy0vHakfDY-1" target="vmyl-uYQFiKy0vHakfDY-77">
          <mxGeometry relative="1" as="geometry">
            <mxPoint x="-560" y="-1005" as="sourcePoint" />
            <mxPoint x="-80" y="-1005" as="targetPoint" />
          </mxGeometry>
        </mxCell>
        <mxCell id="vmyl-uYQFiKy0vHakfDY-77" value="START&amp;nbsp; SITE" style="text;strokeColor=none;fillColor=none;html=1;fontSize=24;fontStyle=1;verticalAlign=middle;align=center;fontColor=#1D3557;" vertex="1" parent="1">
          <mxGeometry x="-384" y="-1024" width="100" height="40" as="geometry" />
        </mxCell>
        <mxCell id="vmyl-uYQFiKy0vHakfDY-78" value="" style="edgeStyle=orthogonalEdgeStyle;rounded=0;orthogonalLoop=1;jettySize=auto;html=1;labelBackgroundColor=none;strokeColor=#457B9D;fontColor=default;" edge="1" parent="1" source="vmyl-uYQFiKy0vHakfDY-9">
          <mxGeometry relative="1" as="geometry">
            <mxPoint x="-205.00000000000023" y="-610" as="targetPoint" />
            <mxPoint x="-90" y="-610" as="sourcePoint" />
          </mxGeometry>
        </mxCell>
        <mxCell id="vmyl-uYQFiKy0vHakfDY-80" value="ADD ITEM TO CART" style="text;strokeColor=none;align=center;fillColor=none;html=1;verticalAlign=middle;whiteSpace=wrap;rounded=0;fontColor=#1D3557;fontSize=20;fontStyle=1" vertex="1" parent="1">
          <mxGeometry x="-363" y="-625" width="152" height="30" as="geometry" />
        </mxCell>
        <mxCell id="vmyl-uYQFiKy0vHakfDY-84" value="" style="endArrow=classic;html=1;rounded=0;exitX=0.5;exitY=1;exitDx=0;exitDy=0;labelBackgroundColor=none;strokeColor=#457B9D;fontColor=default;" edge="1" parent="1" source="vmyl-uYQFiKy0vHakfDY-4" target="vmyl-uYQFiKy0vHakfDY-69">
          <mxGeometry width="50" height="50" relative="1" as="geometry">
            <mxPoint x="-2" y="-760" as="sourcePoint" />
            <mxPoint x="-2" y="-630" as="targetPoint" />
          </mxGeometry>
        </mxCell>
        <mxCell id="vmyl-uYQFiKy0vHakfDY-69" value="ADD ITEM TO WISHLIST" style="text;html=1;align=center;verticalAlign=middle;whiteSpace=wrap;rounded=0;fontColor=#1D3557;rotation=0;fontSize=20;fontStyle=1" vertex="1" parent="1">
          <mxGeometry x="-32.5" y="-702" width="60" height="30" as="geometry" />
        </mxCell>
        <mxCell id="vmyl-uYQFiKy0vHakfDY-85" value="" style="edgeStyle=orthogonalEdgeStyle;rounded=0;orthogonalLoop=1;jettySize=auto;html=1;entryX=0.5;entryY=0;entryDx=0;entryDy=0;labelBackgroundColor=none;strokeColor=#457B9D;fontColor=default;" edge="1" parent="1" source="vmyl-uYQFiKy0vHakfDY-32" target="vmyl-uYQFiKy0vHakfDY-86">
          <mxGeometry relative="1" as="geometry">
            <mxPoint x="360" y="-140" as="sourcePoint" />
            <mxPoint x="225" as="targetPoint" />
          </mxGeometry>
        </mxCell>
        <mxCell id="vmyl-uYQFiKy0vHakfDY-86" value="&lt;h2&gt;NO&lt;/h2&gt;" style="text;html=1;align=center;verticalAlign=middle;whiteSpace=wrap;rounded=0;fontColor=#1D3557;" vertex="1" parent="1">
          <mxGeometry x="285" y="-81" width="60" height="30" as="geometry" />
        </mxCell>
        <mxCell id="vmyl-uYQFiKy0vHakfDY-87" value="&lt;h2&gt;NO&lt;/h2&gt;" style="text;html=1;align=center;verticalAlign=middle;whiteSpace=wrap;rounded=0;fontColor=#1D3557;" vertex="1" parent="1">
          <mxGeometry x="-453" y="-92" width="60" height="30" as="geometry" />
        </mxCell>
        <mxCell id="vmyl-uYQFiKy0vHakfDY-89" value="" style="edgeStyle=orthogonalEdgeStyle;rounded=0;orthogonalLoop=1;jettySize=auto;html=1;entryX=0.5;entryY=0;entryDx=0;entryDy=0;labelBackgroundColor=none;strokeColor=#457B9D;fontColor=default;" edge="1" parent="1" source="vmyl-uYQFiKy0vHakfDY-32" target="vmyl-uYQFiKy0vHakfDY-90">
          <mxGeometry relative="1" as="geometry">
            <mxPoint x="360" y="-140" as="sourcePoint" />
            <mxPoint x="495" as="targetPoint" />
          </mxGeometry>
        </mxCell>
        <mxCell id="vmyl-uYQFiKy0vHakfDY-90" value="&lt;h2&gt;YES&lt;/h2&gt;" style="text;html=1;align=center;verticalAlign=middle;whiteSpace=wrap;rounded=0;fontColor=#1D3557;" vertex="1" parent="1">
          <mxGeometry x="380" y="-81" width="60" height="30" as="geometry" />
        </mxCell>
        <mxCell id="vmyl-uYQFiKy0vHakfDY-91" value="&lt;h1 style=&quot;font-size: 40px;&quot;&gt;DFD DIADRAM OF FLIPKART&lt;/h1&gt;" style="text;html=1;align=center;verticalAlign=middle;whiteSpace=wrap;rounded=0;fontColor=#1D3557;fontStyle=7;fontSize=40;fontFamily=Times New Roman;labelBorderColor=default;" vertex="1" parent="1">
          <mxGeometry x="-707" y="402" width="1430" height="178" as="geometry" />
        </mxCell>
      </root>
    </mxGraphModel>
  </diagram>
</mxfile>
